<?xml version="1.0" encoding="utf-8"?>
<!-- Generator: Adobe Illustrator 16.0.0, SVG Export Plug-In . SVG Version: 6.00 Build 0)  -->
<!DOCTYPE svg PUBLIC "-//W3C//DTD SVG 1.1//EN" "http://www.w3.org/Graphics/SVG/1.1/DTD/svg11.dtd">
<svg version="1.1" id="Layer_2" xmlns="http://www.w3.org/2000/svg" xmlns:xlink="http://www.w3.org/1999/xlink" x="0px" y="0px"
	 width="831.726px" height="372.707px" viewBox="0 0 831.726 372.707" enable-background="new 0 0 831.726 372.707"
	 xml:space="preserve">
<g>
	<polygon fill="#0E4792" points="15.351,124.506 38.423,176.035 53.292,168.673 160.854,372.158 175.83,234.398 181.469,233.346 
		230.854,372.158 270.18,103.374 290.727,103.379 298.879,45.898 229.151,25.131 216.333,198.644 149.168,64.04 132.249,213.366 
		69.699,66.668 	"/>
</g>
<g>
	<polygon fill="#0E4792" points="333.533,53.429 235.354,316.898 295.354,334.898 331.441,184.009 333.533,185.128 351.098,250.226 
		323.354,254.898 311.854,307.898 354.476,290.733 371.854,339.398 414.834,321.333 414.834,297.798 	"/>
</g>
<g>
	<polygon fill="#0E4792" points="656.854,68.898 551.354,83.898 553.354,133.898 592.104,142.023 546.979,335.648 591.729,346.273 	
		"/>
</g>
<g>
	<g>
		<path fill="#0E4792" d="M420.856,121.532l-23.002,6.866l-4.163-55.491c46.673-17.026,82.37-14.47,82.37-14.47
			c54.2,7.011,83.309,35.571,79.793,67.461c-3.5,31.75-32.375,63.75-32.375,63.75l19.5,136.125l-34.125,13l-39.5-128.125l-12,112.25
			l-50.5-4L420.856,121.532z M486.85,176.615c25.846-17.026,17.816-41.062,17.816-41.062c-6.313-22.655-22.688-22.155-22.688-22.155
			l-3.112,4.104l-7.513,69.021C478.38,184.019,486.85,176.615,486.85,176.615z"/>
	</g>
</g>
<g>
	<g>
		<path fill="#0E4792" d="M825.229,262.398c-21.451,72.282-68.375,117.5-127.375,109.367c-52.954-7.3-84.061-89.531-65.673-161.832
			c18.024-70.875,78.184-115.223,131.444-101.922C815.229,120.898,845.854,192.898,825.229,262.398z M736.986,205.154
			c-22.851-8.751-50.125,13.112-55.132,44.244c-5.011,31.157,0.2,61.649,23.376,69.519c25.751,8.744,51.405-13.973,57.609-46.44
			C768.998,240.249,759.6,213.814,736.986,205.154z"/>
	</g>
</g>
<g>
	<linearGradient id="SVGID_1_" gradientUnits="userSpaceOnUse" x1="146.4683" y1="350.8062" x2="146.4682" y2="4.6992">
		<stop  offset="0" style="stop-color:#FAB418"/>
		<stop  offset="1" style="stop-color:#FBB71F"/>
	</linearGradient>
	<polygon fill="url(#SVGID_1_)" points="43.852,150.51 29.162,157.601 4.177,103.188 62.464,42.702 120.372,175.13 136.71,34.525 
		201.804,161.731 213.7,4.699 288.76,28.983 280.352,84.474 260.377,83.975 222.449,348.43 168.157,211.355 168.016,211.38 
		150.987,350.806 	"/>
	<path fill="#EE220B" d="M216.854,9.398l68,22l-7.5,49.5l-20-0.5l-36.5,254.5l-50.5-127.5l-5.5,1l-16,131l-103.5-193.5l-14.5,7
		l-22.5-49l53-55l61,139.5l16.5-142l65.5,128L216.854,9.398 M210.546,0l-0.672,8.869l-10.621,140.194L145.085,43.209l-10.52-20.557
		l-2.665,22.938L118.39,161.862L67.768,46.093l-4.193-9.588l-7.261,7.535l-53,55L0,102.479l1.993,4.339l22.5,49l2.978,6.485
		l6.427-3.103l8.452-4.08L142.682,342.7l10.438,19.514l2.683-21.967l14.057-115.089l44.487,112.319l9.699,24.485l3.739-26.069
		L263.4,87.551l13.779,0.345l6.171,0.154l0.925-6.104l7.5-49.5l0.891-5.879l-5.657-1.83l-68-22L210.546,0L210.546,0z"/>
</g>
<g>
	<linearGradient id="SVGID_2_" gradientUnits="userSpaceOnUse" x1="320.3599" y1="319.0552" x2="320.3599" y2="18.9033">
		<stop  offset="0" style="stop-color:#FAB418"/>
		<stop  offset="1" style="stop-color:#FBB71F"/>
	</linearGradient>
	<polygon fill="url(#SVGID_2_)" points="347.272,272.861 304.076,288.326 316.886,230.1 338.576,223.97 322.812,165.417 
		322.729,165.433 287.406,313.792 230.866,297.23 325.392,18.903 409.854,273.332 409.854,299.713 364.344,319.055 	"/>
	<path fill="#EE220B" d="M325.354,29.898l81,244v23.5l-40,17l-17-46l-40.5,14.5l11-50l23-6.5l-17.5-65l-5.5,1l-35,147l-49.5-14.5
		L325.354,29.898 M325.43,7.908l-6.704,19.739l-90,265l-2.349,6.916l7.009,2.053l49.5,14.5l7.071,2.071l1.707-7.168l31.314-131.521
		l11.319,42.043l-16.347,4.62l-4.032,1.14l-0.9,4.093l-11,50l-2.719,12.36l11.915-4.266l33.977-12.165l14.598,39.501l2.545,6.888
		l6.758-2.872l40-17l4.262-1.812v-4.631v-23.5v-1.131l-0.356-1.074l-81-244L325.43,7.908L325.43,7.908z"/>
</g>
<g>
	<linearGradient id="SVGID_3_" gradientUnits="userSpaceOnUse" x1="592.7134" y1="327.1138" x2="592.7134" y2="52.2085">
		<stop  offset="0" style="stop-color:#FAB418"/>
		<stop  offset="1" style="stop-color:#FBB71F"/>
	</linearGradient>
	<polygon fill="url(#SVGID_3_)" points="540.024,317.09 562.978,115.989 544.673,113.955 554.407,65.286 645.404,52.208 
		582.479,327.114 	"/>
	<path fill="#EE220B" d="M640.854,56.398l-61,266.5l-36-8.5l23-201.5l-18-2l8.5-42.5L640.854,56.398 M649.953,48.019l-10.095,1.451
		l-83.5,12l-4.897,0.704l-0.971,4.852l-8.5,42.5l-1.497,7.487l7.588,0.843l11.022,1.225l-22.204,194.524l-0.705,6.178l6.052,1.429
		l36,8.5l6.859,1.62l1.572-6.871l61-266.5L649.953,48.019L649.953,48.019z"/>
</g>
<g>
	<linearGradient id="SVGID_4_" gradientUnits="userSpaceOnUse" x1="466.5752" y1="318.9341" x2="466.5752" y2="31.1006">
		<stop  offset="0" style="stop-color:#FAB418"/>
		<stop  offset="1" style="stop-color:#FBB71F"/>
	</linearGradient>
	<path fill="url(#SVGID_4_)" d="M461.917,189.959l-12.97,114.739l-39.077-3.607l-0.992-198.39l-16.771,5.426L388.718,46l2.434-0.89
		C424.497,32.92,448.813,31.1,460.341,31.1c4.749,0,7.332,0.311,7.439,0.324c49.769,6.452,78.385,33.418,76.569,72.138
		c-1.393,29.717-24.571,60.3-29.808,66.85l20.195,136.316l-34.179,12.206L461.917,189.959z M464.355,156.811
		c5.747-2.894,11.761-6.795,11.84-6.846c23.06-15.224,16.62-36.093,16.334-36.974l-0.089-0.274l-0.047-0.3
		c-1.953-13.017-16.009-16.954-22.582-18.089L464.355,156.811z"/>
	<path fill="#EE220B" d="M460.341,34.6c4.589,0,7.013,0.298,7.013,0.298c54,7,75,36.5,73.5,68.5s-30,66-30,66l20,135l-28,10
		l-38.5-128.5h-5.5l-13,115l-32.5-3l-1-200l-17,5.5l-3-55C425.291,36.356,449.197,34.6,460.341,34.6 M460.354,162.398
		c7-2.5,17.75-9.5,17.75-9.5c25.75-17,17.75-41,17.75-41c-3-20-29.213-21.5-29.213-21.5L460.354,162.398 M460.341,27.6
		c-11.759,0-36.54,1.848-70.391,14.224l-4.869,1.78l0.282,5.176l3,55l0.495,9.077l8.649-2.798l7.893-2.554l0.952,190.429
		l0.032,6.352l6.325,0.584l32.5,3l6.829,0.63l0.77-6.814l10.664-94.334l32.675,109.057l2.116,7.063l6.943-2.48l28-10l5.412-1.933
		l-0.842-5.685l-19.553-131.982c6.795-8.73,28.252-38.481,29.62-67.665c0.885-18.877-5.302-35.756-17.891-48.812
		c-13.864-14.378-34.624-23.448-61.702-26.958C467.916,27.915,465.218,27.6,460.341,27.6L460.341,27.6z M468.41,150.616
		l4.542-52.013c6.206,1.67,14.662,5.542,15.98,14.333l0.1,0.66l0.175,0.493c0.36,1.18,5.522,19.445-14.958,32.967
		C473.08,147.815,470.91,149.169,468.41,150.616L468.41,150.616z"/>
</g>
<g>
	<linearGradient id="SVGID_5_" gradientUnits="userSpaceOnUse" x1="716.0513" y1="352.4116" x2="716.0513" y2="76.6123">
		<stop  offset="0" style="stop-color:#FAB418"/>
		<stop  offset="1" style="stop-color:#FBB71F"/>
	</linearGradient>
	<path fill="url(#SVGID_5_)" d="M706.039,352.412c-8.688,0-17.382-1.465-25.84-4.354c-53.508-18.281-79.601-88.25-60.695-162.752
		c7.529-29.67,23.021-57.117,43.624-77.284c20.69-20.254,44.687-31.409,67.567-31.409c8.435,0,16.65,1.521,24.42,4.521
		c25.519,9.854,44.465,30.079,54.789,58.487c10.023,27.579,11.54,61.792,4.387,98.939
		C801.587,304.53,756.061,352.412,706.039,352.412z M716.824,182.963c-18.598,0-37.997,19.08-44.164,43.436
		c-7.581,29.948,2.797,58.008,24.143,65.272c3.306,1.125,6.694,1.695,10.07,1.696c19.759,0.002,37.742-19.095,42.76-45.409
		c5.945-31.181-3.088-55.436-23.573-63.297C723.123,183.535,720.015,182.963,716.824,182.963z"/>
	<path fill="#EE220B" d="M730.695,80.112c7.842,0,15.618,1.374,23.159,4.286c50.5,19.5,71.195,79.781,57,153.5
		c-12.242,63.574-56.3,111.014-104.815,111.014c-8.156,0-16.429-1.339-24.708-4.167c-51.768-17.687-76.754-86.387-58.435-158.579
		C638.201,125.855,685.47,80.115,730.695,80.112 M706.872,296.868c21.526,0,40.922-20.578,46.199-48.253
		c6.135-32.179-3.228-58.574-25.758-67.221c-3.417-1.312-6.942-1.931-10.489-1.931c-20.081,0-40.912,19.832-47.557,46.077
		c-7.976,31.503,3.317,61.587,26.407,69.444C699.428,296.262,703.183,296.868,706.872,296.868 M730.699,73.112v7V73.112
		c-23.806,0.001-48.671,11.511-70.02,32.409c-21.056,20.61-36.884,48.64-44.568,78.923c-9.219,36.329-8.101,73.215,3.148,103.863
		c11.536,31.431,32.776,53.826,59.809,63.062c8.822,3.015,17.896,4.543,26.971,4.543c25.334,0,50.589-12.03,71.112-33.873
		c19.977-21.264,34.388-50.675,40.577-82.817c7.272-37.769,5.705-72.624-4.534-100.797c-10.681-29.388-30.328-50.328-56.818-60.557
		C748.203,74.712,739.564,73.112,730.699,73.112L730.699,73.112z M706.872,289.868c-2.99,0-5.999-0.508-8.942-1.51
		c-9.135-3.108-16.437-10.818-20.562-21.708c-4.363-11.517-4.83-25.507-1.314-39.392c5.792-22.875,23.7-40.795,40.771-40.795
		c2.762,0,5.446,0.493,7.981,1.466c18.8,7.215,26.996,29.966,21.39,59.375c-2.313,12.124-7.709,23.128-15.197,30.986
		C723.882,285.755,715.315,289.868,706.872,289.868L706.872,289.868z"/>
</g>
</svg>
